<svg width="98" height="30" viewBox="0 0 98 30" fill="none" xmlns="http://www.w3.org/2000/svg">
<g clip-path="url(#clip0_2_32)">
<path d="M28.1198 20.5099C26.9727 23.6456 24.7683 26.2884 21.8821 27.9883C18.9959 29.6881 15.6067 30.3398 12.2917 29.8321C8.97681 29.3246 5.9413 27.6891 3.70251 25.2045C1.46372 22.7198 0.160105 19.5398 0.0138062 16.2061C-0.132493 12.8724 0.887569 9.59136 2.90019 6.92205C4.91281 4.25276 7.79344 2.36032 11.0513 1.56719C14.3092 0.774065 17.7426 1.12933 20.7667 2.57245C23.7908 4.01557 26.2184 6.45728 27.6358 9.48145L23.4311 11.4322C22.4672 9.37582 20.8165 7.71555 18.7602 6.73426C16.704 5.75297 14.3693 5.5114 12.154 6.05072C9.93877 6.59003 7.98005 7.8768 6.61153 9.69186C5.24298 11.5069 4.54937 13.7379 4.64885 16.0047C4.74833 18.2715 5.63475 20.4339 7.15708 22.1234C8.67939 23.8129 10.7434 24.9249 12.9975 25.2701C15.2515 25.6152 17.5562 25.1721 19.5187 24.0163C21.4811 22.8605 22.9801 21.0634 23.7601 18.9312L28.1198 20.5099Z" fill="black" fill-opacity="0.6"/>
<path d="M39.9625 19.9512C38.8016 21.0912 37.3844 21.6612 35.7109 21.6612C34.0373 21.6612 32.6201 21.0912 31.4592 19.9512C30.3133 18.7962 29.7404 17.3862 29.7404 15.7212C29.7404 14.0562 30.3133 12.6537 31.4592 11.5137C32.6201 10.3587 34.0373 9.78117 35.7109 9.78117C37.3844 9.78117 38.8016 10.3587 39.9625 11.5137C41.1235 12.6537 41.7039 14.0562 41.7039 15.7212C41.7039 17.3862 41.1235 18.7962 39.9625 19.9512ZM33.5172 17.9487C34.1052 18.5337 34.8364 18.8262 35.7109 18.8262C36.5853 18.8262 37.3165 18.5337 37.9045 17.9487C38.4925 17.3637 38.7865 16.6212 38.7865 15.7212C38.7865 14.8212 38.4925 14.0787 37.9045 13.4937C37.3165 12.9087 36.5853 12.6162 35.7109 12.6162C34.8364 12.6162 34.1052 12.9087 33.5172 13.4937C32.9442 14.0787 32.6578 14.8212 32.6578 15.7212C32.6578 16.6212 32.9442 17.3637 33.5172 17.9487ZM51.2194 10.0962H54.1368V21.3462H51.2194V20.0862C50.5108 21.1362 49.3875 21.6612 47.8497 21.6612C46.6134 21.6612 45.5882 21.2487 44.774 20.4237C43.9749 19.5987 43.5754 18.4587 43.5754 17.0037V10.0962H46.4928V16.6437C46.4928 17.3937 46.6963 17.9712 47.1034 18.3762C47.5105 18.7662 48.0532 18.9612 48.7317 18.9612C49.4855 18.9612 50.0886 18.7287 50.5409 18.2637C50.9932 17.7987 51.2194 17.1012 51.2194 16.1712V10.0962ZM63.0958 9.78117C64.3321 9.78117 65.3498 10.1937 66.1488 11.0187C66.963 11.8437 67.3701 12.9837 67.3701 14.4387V21.3462H64.4527V14.7987C64.4527 14.0487 64.2491 13.4787 63.8421 13.0887C63.435 12.6837 62.8922 12.4812 62.2138 12.4812C61.4599 12.4812 60.8568 12.7137 60.4045 13.1787C59.9522 13.6437 59.7261 14.3412 59.7261 15.2712V21.3462H56.8087V10.0962H59.7261V11.3562C60.4347 10.3062 61.5579 9.78117 63.0958 9.78117ZM76.3292 12.8862H73.7737V17.5662C73.7737 17.9562 73.8717 18.2412 74.0677 18.4212C74.2637 18.6012 74.5502 18.7062 74.9271 18.7362C75.304 18.7512 75.7714 18.7437 76.3292 18.7137V21.3462C74.324 21.5712 72.9068 21.3837 72.0775 20.7837C71.2634 20.1837 70.8563 19.1112 70.8563 17.5662V12.8862H68.8888V10.0962H70.8563V7.82367L73.7737 6.94617V10.0962H76.3292V12.8862ZM80.498 16.9137C80.89 18.3237 81.9529 19.0287 83.6868 19.0287C84.8025 19.0287 85.6468 18.6537 86.2197 17.9037L88.5717 19.2537C87.456 20.8587 85.8126 21.6612 83.6416 21.6612C81.772 21.6612 80.2719 21.0987 79.1411 19.9737C78.0103 18.8487 77.4449 17.4312 77.4449 15.7212C77.4449 14.0262 78.0028 12.6162 79.1185 11.4912C80.2342 10.3512 81.6665 9.78117 83.4154 9.78117C85.0739 9.78117 86.4383 10.3512 87.5088 11.4912C88.5943 12.6312 89.1371 14.0412 89.1371 15.7212C89.1371 16.0962 89.0994 16.4937 89.024 16.9137H80.498ZM80.4528 14.6637H86.2197C86.0539 13.8987 85.7071 13.3287 85.1794 12.9537C84.6668 12.5787 84.0788 12.3912 83.4154 12.3912C82.6314 12.3912 81.9831 12.5937 81.4705 12.9987C80.9579 13.3887 80.6186 13.9437 80.4528 14.6637ZM94.091 12.0312C94.3624 11.3112 94.8072 10.7712 95.4253 10.4112C96.0586 10.0512 96.7596 9.87117 97.5286 9.87117V13.1112C96.639 13.0062 95.8399 13.1862 95.1313 13.6512C94.4378 14.1162 94.091 14.8887 94.091 15.9687V21.3462H91.1736V10.0962H94.091V12.0312Z" fill="black" fill-opacity="0.3"/>
</g>
<defs>
<clipPath id="clip0_2_32">
<rect width="98" height="30" fill="white"/>
</clipPath>
</defs>
</svg>
