<svg width="156" height="210" viewBox="0 0 156 210" fill="none" xmlns="http://www.w3.org/2000/svg">
<path d="M135.329 181.232C121.697 200.24 102.593 209.744 78.0169 209.744C53.4409 209.744 34.3369 200.24 20.7049 181.232C7.07288 162.224 0.256876 136.88 0.256876 105.2C0.256876 73.52 7.07288 48.176 20.7049 29.168C34.3369 10.16 53.4409 0.655983 78.0169 0.655983C102.593 0.655983 121.697 10.16 135.329 29.168C148.961 48.176 155.777 73.52 155.777 105.2C155.777 136.88 148.961 162.224 135.329 181.232ZM40.2889 163.088C49.1209 176.72 61.6969 183.536 78.0169 183.536C94.3369 183.536 106.913 176.72 115.745 163.088C124.769 149.456 129.281 130.16 129.281 105.2C129.281 80.24 124.769 60.944 115.745 47.312C106.913 33.488 94.3369 26.576 78.0169 26.576C61.6969 26.576 49.1209 33.392 40.2889 47.024C31.4569 60.656 27.0409 80.048 27.0409 105.2C27.0409 130.16 31.4569 149.456 40.2889 163.088Z" fill="#F27C0F"/>
</svg>
